<?xml version="1.0" ?><svg id="Layer_1" style="enable-background:new 0 0 160 160;" version="1.1" viewBox="0 0 160 160" xml:space="preserve" xmlns="http://www.w3.org/2000/svg" xmlns:xlink="http://www.w3.org/1999/xlink"><g><path d="M145.633,96.825c-0.002-0.018-0.001-0.036-0.004-0.055c-0.026-0.199-0.076-0.392-0.135-0.581   c-0.016-0.051-0.033-0.101-0.051-0.151c-0.071-0.194-0.153-0.383-0.256-0.561c-0.002-0.004-0.003-0.008-0.005-0.012   c-0.008-0.013-0.018-0.023-0.026-0.036c-0.099-0.164-0.214-0.318-0.339-0.465c-0.034-0.039-0.066-0.079-0.101-0.117   c-0.133-0.143-0.276-0.277-0.434-0.397c-0.036-0.027-0.074-0.049-0.11-0.075c-0.08-0.056-0.158-0.115-0.244-0.165l-15.832-9.26   c-1.092-0.638-2.442-0.638-3.534,0l-15.832,9.259c-0.09,0.052-0.172,0.113-0.255,0.173c-0.032,0.022-0.065,0.041-0.096,0.065   c-0.16,0.121-0.305,0.257-0.44,0.402c-0.033,0.036-0.065,0.074-0.097,0.112c-0.126,0.147-0.242,0.302-0.341,0.468   c-0.008,0.013-0.018,0.023-0.026,0.036c-0.002,0.004-0.003,0.008-0.005,0.012c-0.103,0.178-0.186,0.367-0.256,0.561   c-0.018,0.051-0.036,0.101-0.052,0.152c-0.059,0.189-0.108,0.382-0.135,0.581c-0.002,0.018-0.002,0.036-0.004,0.055   c-0.016,0.134-0.027,0.27-0.027,0.407v16.437l-7.516,4.086c0.12,0.075,0.239,0.151,0.352,0.232l0.245,0.173   c0.303,0.231,0.599,0.5,0.875,0.797c0.052,0.055,0.123,0.135,0.193,0.218c0.199,0.233,0.374,0.464,0.531,0.702l0.069,0.085   l0.281,0.504c0.136,0.262,0.262,0.55,0.376,0.863c0.041,0.114,0.074,0.211,0.104,0.31c0.124,0.394,0.21,0.773,0.261,1.151   l0.026,0.243c0.023,0.228,0.037,0.457,0.037,0.689v0.178l7.602-4.133l14.127,8.262c0.114,0.067,0.233,0.122,0.352,0.175   c0.022,0.01,0.043,0.023,0.065,0.033c0.185,0.078,0.376,0.133,0.57,0.177c0.053,0.012,0.106,0.022,0.159,0.032   c0.206,0.037,0.413,0.063,0.621,0.063c0.208,0,0.415-0.026,0.621-0.063c0.054-0.01,0.106-0.02,0.159-0.032   c0.194-0.044,0.385-0.1,0.571-0.177c0.02-0.008,0.038-0.02,0.058-0.029c0.121-0.053,0.242-0.11,0.358-0.178l15.832-9.26   c1.073-0.627,1.733-1.777,1.733-3.021V97.232C145.66,97.095,145.648,96.96,145.633,96.825z M126.328,92.028l8.899,5.204   l-8.899,5.204l-8.898-5.204L126.328,92.028z M113.996,103.334l8.832,5.165v10.409l-8.832-5.165V103.334z M129.828,118.908v-10.408   l8.832-5.165v10.408L129.828,118.908z"/><path d="M99.305,123.313c-0.002-0.018-0.001-0.036-0.004-0.054c-0.027-0.199-0.076-0.392-0.135-0.581   c-0.016-0.05-0.033-0.1-0.051-0.15c-0.071-0.195-0.154-0.384-0.257-0.563c-0.002-0.003-0.003-0.007-0.005-0.011   c-0.007-0.012-0.017-0.021-0.024-0.033c-0.1-0.166-0.215-0.321-0.342-0.469c-0.033-0.039-0.065-0.077-0.099-0.114   c-0.134-0.144-0.278-0.278-0.436-0.399c-0.033-0.025-0.069-0.046-0.103-0.07c-0.082-0.058-0.162-0.118-0.25-0.169l-15.832-9.259   c-1.092-0.638-2.442-0.638-3.534,0l-15.832,9.259c-0.09,0.053-0.172,0.114-0.256,0.174c-0.031,0.022-0.064,0.041-0.094,0.064   c-0.16,0.122-0.305,0.257-0.44,0.402c-0.033,0.036-0.064,0.073-0.096,0.111c-0.127,0.148-0.244,0.305-0.344,0.471   c-0.007,0.012-0.017,0.021-0.024,0.032c-0.002,0.003-0.003,0.007-0.005,0.011c-0.104,0.179-0.186,0.368-0.257,0.563   c-0.018,0.05-0.035,0.1-0.051,0.15c-0.059,0.189-0.108,0.382-0.135,0.581c-0.002,0.018-0.002,0.036-0.004,0.054   c-0.016,0.135-0.027,0.272-0.027,0.41v18.518c0,1.244,0.66,2.394,1.733,3.021l15.832,9.259c0.116,0.068,0.236,0.125,0.358,0.178   c0.02,0.009,0.038,0.021,0.058,0.029c0.186,0.078,0.377,0.133,0.571,0.177c0.053,0.012,0.105,0.022,0.159,0.032   C79.585,154.974,79.792,155,80,155s0.415-0.026,0.621-0.063c0.054-0.01,0.106-0.02,0.159-0.032c0.194-0.044,0.385-0.1,0.571-0.177   c0.02-0.008,0.038-0.02,0.058-0.029c0.121-0.053,0.242-0.11,0.358-0.178l15.832-9.259c1.073-0.628,1.733-1.778,1.733-3.021v-18.518   C99.332,123.585,99.32,123.449,99.305,123.313z M80,118.519l8.9,5.205l-8.9,5.207l-8.9-5.207L80,118.519z M67.668,129.826   l8.832,5.167v10.405l-8.832-5.165V129.826z M83.5,145.398v-10.405l8.832-5.167v10.407L83.5,145.398z"/><path d="M53.004,113.669V97.232c0-0.137-0.011-0.273-0.027-0.407c-0.002-0.018-0.001-0.036-0.004-0.055   c-0.026-0.199-0.076-0.392-0.135-0.581c-0.016-0.051-0.033-0.101-0.051-0.151c-0.071-0.194-0.153-0.383-0.256-0.561   c-0.002-0.004-0.003-0.008-0.005-0.012c-0.008-0.013-0.018-0.023-0.026-0.036c-0.099-0.164-0.214-0.318-0.339-0.465   c-0.034-0.039-0.066-0.079-0.101-0.117c-0.133-0.143-0.276-0.277-0.434-0.397c-0.036-0.027-0.074-0.049-0.111-0.075   c-0.08-0.056-0.158-0.115-0.243-0.165l-15.832-9.259c-1.092-0.639-2.442-0.639-3.534,0l-15.832,9.259   c-0.089,0.052-0.171,0.113-0.254,0.172c-0.032,0.023-0.066,0.042-0.098,0.066c-0.159,0.121-0.304,0.256-0.438,0.401   c-0.034,0.036-0.065,0.075-0.098,0.113c-0.126,0.147-0.241,0.302-0.34,0.467c-0.008,0.013-0.018,0.023-0.026,0.036   c-0.002,0.004-0.003,0.008-0.005,0.012c-0.103,0.178-0.186,0.367-0.256,0.561c-0.018,0.051-0.036,0.101-0.052,0.152   c-0.059,0.189-0.108,0.382-0.135,0.581c-0.002,0.018-0.002,0.036-0.004,0.055c-0.016,0.134-0.027,0.27-0.027,0.407v18.518   c0,1.244,0.66,2.394,1.733,3.021l15.832,9.259c0.114,0.067,0.233,0.122,0.352,0.175c0.022,0.01,0.043,0.023,0.065,0.033   c0.185,0.078,0.376,0.133,0.57,0.177c0.053,0.012,0.106,0.022,0.159,0.032c0.206,0.037,0.413,0.063,0.621,0.063   s0.415-0.025,0.621-0.063c0.054-0.01,0.107-0.02,0.159-0.032c0.193-0.044,0.384-0.099,0.57-0.177   c0.023-0.009,0.043-0.023,0.065-0.033c0.119-0.053,0.238-0.109,0.352-0.175l14.127-8.262l7.602,4.133v-0.178   c0-0.229,0.013-0.456,0.036-0.681l0.026-0.251c0.05-0.373,0.136-0.751,0.263-1.156c0.027-0.087,0.061-0.188,0.097-0.289   c0.115-0.317,0.24-0.604,0.379-0.872l0.343-0.578c0.171-0.26,0.351-0.497,0.546-0.724c0.067-0.079,0.127-0.148,0.19-0.216   c0.276-0.297,0.575-0.569,0.885-0.804l0.214-0.152c0.14-0.099,0.253-0.17,0.37-0.243L53.004,113.669z M33.672,92.028l8.898,5.204   l-8.898,5.204l-8.898-5.204L33.672,92.028z M21.341,103.334l8.832,5.165v10.409l-8.832-5.165V103.334z M37.172,118.908v-10.408   l8.832-5.165v10.408L37.172,118.908z"/><path d="M99.332,34.197V17.759c0-0.138-0.011-0.274-0.027-0.409c-0.002-0.017-0.001-0.034-0.003-0.051   c-0.026-0.2-0.076-0.394-0.135-0.584c-0.016-0.05-0.032-0.099-0.05-0.148c-0.071-0.195-0.154-0.385-0.258-0.564   c-0.002-0.003-0.003-0.007-0.005-0.01c-0.007-0.011-0.016-0.02-0.023-0.031c-0.1-0.167-0.216-0.323-0.343-0.471   c-0.033-0.039-0.065-0.077-0.099-0.114c-0.134-0.143-0.277-0.278-0.435-0.398c-0.035-0.027-0.073-0.049-0.11-0.074   c-0.081-0.057-0.159-0.116-0.245-0.166L81.767,5.479c-1.092-0.639-2.442-0.639-3.534,0l-15.832,9.259   c-0.085,0.049-0.162,0.108-0.241,0.163c-0.038,0.027-0.078,0.049-0.115,0.078c-0.157,0.12-0.3,0.253-0.432,0.396   c-0.035,0.038-0.067,0.077-0.101,0.117c-0.126,0.148-0.242,0.303-0.342,0.47c-0.007,0.011-0.016,0.02-0.023,0.031   c-0.002,0.003-0.003,0.007-0.005,0.01c-0.104,0.179-0.187,0.369-0.258,0.564c-0.018,0.05-0.035,0.099-0.051,0.149   c-0.06,0.19-0.109,0.384-0.135,0.584c-0.002,0.017-0.001,0.034-0.003,0.051c-0.016,0.135-0.027,0.271-0.027,0.409v16.437   l-7.516,4.086c0.134,0.084,0.266,0.169,0.392,0.259c0.014,0.006,0.1,0.065,0.184,0.129c0.321,0.245,0.619,0.516,0.897,0.815   c0.061,0.065,0.121,0.134,0.18,0.204c0.208,0.243,0.387,0.479,0.547,0.722l0.272,0.444c0.172,0.313,0.322,0.645,0.454,1.011   c0.032,0.086,0.07,0.198,0.104,0.31c0.121,0.383,0.208,0.767,0.26,1.147l0.026,0.258c0.022,0.223,0.035,0.445,0.035,0.667v0.178   l7.601-4.133L76.5,47.544v7.878c2.164-1.248,4.838-1.248,7,0v-7.878l12.395-7.249l7.601,4.133V44.25   c0-0.222,0.013-0.443,0.034-0.662l0.021-0.22c0.056-0.422,0.143-0.803,0.271-1.21c0.034-0.106,0.069-0.21,0.107-0.314   c0.125-0.345,0.273-0.674,0.446-0.987l0.272-0.443c0.17-0.258,0.343-0.486,0.539-0.714c0.071-0.083,0.127-0.148,0.185-0.21   c0.284-0.305,0.584-0.578,0.896-0.814l0.204-0.144c0.133-0.095,0.254-0.171,0.377-0.248L99.332,34.197z M80,12.555l8.898,5.204   L80,22.96l-8.898-5.201L80,12.555z M67.668,23.86l8.832,5.163v10.412l-8.832-5.165V23.86z M83.5,39.435V29.022l8.832-5.163v10.41   L83.5,39.435z"/><path d="M57.205,70.057l0.024-0.234c0.05-0.377,0.136-0.758,0.264-1.167c0.037-0.115,0.07-0.212,0.105-0.311   c0.11-0.304,0.233-0.587,0.373-0.855l0.349-0.587c0.158-0.239,0.333-0.472,0.533-0.705c0.078-0.092,0.145-0.168,0.214-0.242   c0.256-0.276,0.554-0.547,0.863-0.783l0.219-0.155c0.138-0.098,0.252-0.17,0.371-0.244l-7.516-4.086V44.25   c0-0.139-0.011-0.276-0.027-0.412c-0.002-0.016-0.001-0.032-0.003-0.048c-0.027-0.2-0.076-0.395-0.136-0.585   c-0.016-0.049-0.032-0.098-0.05-0.147c-0.071-0.196-0.154-0.386-0.259-0.566c-0.002-0.003-0.002-0.006-0.004-0.009   c-0.006-0.01-0.014-0.018-0.02-0.028c-0.101-0.169-0.219-0.327-0.347-0.477c-0.032-0.037-0.062-0.074-0.095-0.109   c-0.135-0.145-0.281-0.281-0.441-0.403c-0.03-0.023-0.061-0.041-0.092-0.062c-0.085-0.06-0.168-0.122-0.259-0.175L35.439,31.97   c-1.091-0.638-2.442-0.638-3.534,0l-15.832,9.259c-0.092,0.054-0.177,0.117-0.263,0.178c-0.028,0.02-0.058,0.037-0.086,0.058   c-0.161,0.123-0.308,0.259-0.444,0.406c-0.032,0.034-0.061,0.07-0.091,0.105c-0.129,0.151-0.248,0.31-0.35,0.48   c-0.006,0.01-0.014,0.018-0.02,0.028c-0.002,0.003-0.002,0.006-0.004,0.009c-0.104,0.18-0.188,0.37-0.259,0.566   c-0.018,0.049-0.034,0.097-0.05,0.147c-0.06,0.19-0.109,0.385-0.136,0.585c-0.002,0.016-0.001,0.032-0.003,0.048   c-0.016,0.136-0.027,0.273-0.027,0.412v18.518c0,1.244,0.66,2.394,1.733,3.021l14.099,8.246v7.879c2.163-1.25,4.837-1.25,7,0   v-7.879l12.394-7.249l7.602,4.133v-0.178C57.168,70.511,57.182,70.283,57.205,70.057z M30.172,65.926L21.34,60.76V50.352   l8.832,5.166V65.926z M33.673,49.455l-8.899-5.205l8.899-5.204l8.899,5.204L33.673,49.455z M46.004,60.76l-8.832,5.165V55.517   l8.832-5.165V60.76z"/><path d="M99.332,87.179V70.741c0-0.137-0.011-0.273-0.027-0.407c-0.002-0.018-0.001-0.036-0.004-0.055   c-0.026-0.199-0.076-0.392-0.135-0.581c-0.016-0.051-0.033-0.101-0.051-0.151c-0.071-0.194-0.153-0.383-0.256-0.561   c-0.002-0.004-0.003-0.008-0.005-0.011c-0.008-0.013-0.018-0.023-0.026-0.035c-0.099-0.165-0.214-0.319-0.34-0.466   c-0.033-0.039-0.065-0.078-0.1-0.115c-0.134-0.143-0.277-0.278-0.435-0.398c-0.034-0.026-0.071-0.047-0.106-0.072   c-0.081-0.057-0.161-0.117-0.247-0.167l-15.832-9.259c-1.092-0.638-2.442-0.638-3.534,0L62.401,67.72   c-0.091,0.053-0.174,0.115-0.259,0.175c-0.03,0.021-0.062,0.039-0.091,0.062c-0.16,0.122-0.305,0.257-0.441,0.403   c-0.033,0.036-0.064,0.074-0.096,0.111c-0.126,0.148-0.242,0.303-0.342,0.469c-0.008,0.013-0.018,0.022-0.025,0.035   c-0.002,0.004-0.003,0.008-0.005,0.011c-0.103,0.178-0.186,0.367-0.256,0.561c-0.018,0.051-0.036,0.101-0.052,0.152   c-0.059,0.189-0.108,0.382-0.135,0.581c-0.002,0.018-0.002,0.036-0.004,0.055c-0.016,0.134-0.027,0.27-0.027,0.407v16.437   l-7.516,4.087c0.115,0.071,0.229,0.144,0.34,0.223l0.287,0.205c0.271,0.205,0.559,0.467,0.841,0.77   c0.063,0.068,0.128,0.142,0.192,0.218c0.205,0.24,0.381,0.473,0.539,0.711l0.277,0.453c0.169,0.307,0.316,0.634,0.448,0.996   c0.04,0.11,0.071,0.204,0.102,0.3c0.129,0.414,0.216,0.795,0.266,1.171l0.025,0.252c0.024,0.243,0.036,0.455,0.036,0.669v0.178   l7.601-4.133l12.395,7.249v7.878c2.164-1.248,4.838-1.248,7,0v-7.878l12.395-7.249l7.599,4.132v-0.178c0-0.23,0.02-0.45,0.04-0.68   l0.02-0.24c0.05-0.37,0.14-0.76,0.27-1.16l0.09-0.29c0.14-0.38,0.29-0.71,0.46-1.02l0.26-0.43c0.15-0.23,0.34-0.48,0.55-0.72   l0.18-0.21c0.29-0.31,0.59-0.58,0.9-0.82l0.22-0.16c0.137-0.091,0.25-0.163,0.365-0.236L99.332,87.179z M80,65.537l8.898,5.204   L80,75.945l-8.898-5.204L80,65.537z M67.668,76.843l8.832,5.165v10.408l-8.832-5.165V76.843z M83.5,92.416V82.008l8.832-5.165   v10.408L83.5,92.416z"/><path d="M145.632,43.838c-0.002-0.016-0.001-0.032-0.003-0.048c-0.027-0.201-0.076-0.395-0.136-0.586   c-0.015-0.049-0.032-0.097-0.05-0.146c-0.071-0.196-0.155-0.387-0.259-0.566c-0.002-0.003-0.002-0.006-0.004-0.009   c-0.006-0.01-0.014-0.018-0.02-0.028c-0.101-0.169-0.219-0.327-0.348-0.477c-0.032-0.037-0.062-0.074-0.095-0.11   c-0.135-0.145-0.28-0.281-0.44-0.402c-0.032-0.024-0.066-0.044-0.098-0.066c-0.083-0.059-0.165-0.12-0.253-0.172l-15.832-9.259   c-1.092-0.638-2.442-0.638-3.534,0l-15.832,9.259c-0.092,0.054-0.177,0.117-0.263,0.178c-0.028,0.02-0.058,0.037-0.085,0.058   c-0.161,0.122-0.308,0.259-0.444,0.406c-0.032,0.034-0.062,0.071-0.092,0.106c-0.129,0.151-0.248,0.309-0.349,0.479   c-0.006,0.01-0.014,0.018-0.02,0.028c-0.002,0.003-0.002,0.006-0.004,0.009c-0.104,0.179-0.188,0.37-0.259,0.566   c-0.018,0.049-0.034,0.098-0.05,0.147c-0.06,0.19-0.109,0.384-0.136,0.585c-0.002,0.016-0.001,0.032-0.003,0.048   c-0.016,0.136-0.027,0.273-0.027,0.412v16.437l-7.516,4.086c0.117,0.073,0.233,0.147,0.345,0.226l0.24,0.168   c0.317,0.242,0.603,0.502,0.883,0.803c0.072,0.077,0.143,0.16,0.213,0.244c0.187,0.218,0.357,0.444,0.512,0.678l0.354,0.595   c0.139,0.268,0.262,0.552,0.375,0.86c0.04,0.11,0.071,0.204,0.102,0.3c0.129,0.414,0.216,0.795,0.266,1.171l0.023,0.226   c0.023,0.218,0.038,0.456,0.038,0.696v0.178l7.602-4.133l12.394,7.249v7.879c2.163-1.244,4.837-1.244,7-0.001v-7.878l14.099-8.246   c1.073-0.627,1.733-1.777,1.733-3.021V44.25C145.66,44.111,145.649,43.974,145.632,43.838z M126.328,39.046l8.899,5.204   l-8.899,5.205l-8.899-5.204L126.328,39.046z M113.996,50.352l8.832,5.165v10.409l-8.832-5.165V50.352z M129.828,65.926V55.517   l8.832-5.166V60.76L129.828,65.926z"/></g></svg>