<?xml version="1.0" standalone="no"?>
<!DOCTYPE svg PUBLIC "-//W3C//DTD SVG 20010904//EN"
 "http://www.w3.org/TR/2001/REC-SVG-20010904/DTD/svg10.dtd">
<svg version="1.0" xmlns="http://www.w3.org/2000/svg"
 width="1024.000000pt" height="1024.000000pt" viewBox="0 0 1024.000000 1024.000000"
 preserveAspectRatio="xMidYMid meet">
<metadata>
Created by potrace 1.14, written by Peter Selinger 2001-2017
</metadata>
<g transform="translate(0.000000,1024.000000) scale(0.100000,-0.100000)"
fill="#000000" stroke="none">
<path d="M5018 9374 c-56 -14 -3502 -1735 -3561 -1778 -64 -46 -97 -86 -136
-166 l-36 -75 0 -2230 c0 -2169 1 -2231 19 -2280 24 -62 65 -124 117 -174 32
-30 434 -235 1802 -919 1557 -779 1770 -882 1827 -891 73 -11 114 -9 180 8 25
7 833 406 1796 887 1605 802 1755 879 1803 926 49 48 76 88 110 168 14 31 16
287 18 2245 3 2376 5 2253 -47 2358 -27 54 -82 114 -141 154 -36 24 -3434
1725 -3504 1753 -64 27 -173 33 -247 14z m1330 -1505 c672 -336 1222 -614
1221 -617 -1 -12 -2438 -1224 -2454 -1220 -24 5 -2443 1212 -2444 1219 -1 6
2436 1229 2449 1229 3 0 555 -275 1228 -611z m-2930 -1948 l1277 -639 -2
-1633 c0 -899 -2 -1644 -2 -1655 -1 -19 -158 57 -1278 617 l-1278 639 -1 1655
c0 910 1 1655 3 1655 2 0 578 -287 1281 -639z m4688 -1021 l-1 -1651 -1277
-638 c-994 -497 -1277 -635 -1280 -622 -5 24 -2 3290 3 3295 12 11 2545 1273
2550 1270 3 -1 5 -746 5 -1654z"/>
</g>
</svg>
